<?xml version="1.0" encoding="iso-8859-1"?>
<!-- Generator: Adobe Illustrator 19.0.0, SVG Export Plug-In . SVG Version: 6.00 Build 0)  -->
<svg version="1.1" id="Capa_1" xmlns="http://www.w3.org/2000/svg" xmlns:xlink="http://www.w3.org/1999/xlink" x="0px" y="0px"
	 viewBox="0 0 507.488 507.488" style="enable-background:new 0 0 507.488 507.488;" xml:space="preserve">
<g>
	<g>
		<g fill="#ffffff">
			<path d="M381.584,443.347l30.048,10.992c5.888-16.112,11.056-32.768,15.36-49.472l-31.008-8
				C391.952,412.547,387.12,428.163,381.584,443.347z"/>
			<path d="M356.832,104.867l-18.688,25.968c45.943,33.126,73.218,86.272,73.344,142.912c0.006,31.208-2.924,62.348-8.752,93.008
				l31.424,6c6.212-32.637,9.335-65.786,9.328-99.008C443.357,206.814,411.129,144.006,356.832,104.867z"/>
			<path d="M88.8,176.547c47.87-72.243,141.207-98.887,220-62.8l13.376-29.056c-27.173-12.547-56.758-19.012-86.688-18.944
				c-69.732-0.022-134.827,34.932-173.328,93.072L88.8,176.547z"/>
			<path d="M74.144,203.347l-29.312-12.8c-11.496,26.228-17.403,54.563-17.344,83.2c0.01,20.042-5.403,39.712-15.664,56.928
				l27.488,16.4c13.209-22.179,20.18-47.514,20.176-73.328C59.43,249.517,64.421,225.54,74.144,203.347z"/>
			<path d="M293.088,483.347l27.936,15.584c30.32-54.123,49.323-113.844,55.856-175.536l-31.808-3.392
				C338.975,377.407,321.29,432.977,293.088,483.347z"/>
			<path d="M235.488,129.747c-18.521-0.025-36.871,3.545-54.032,10.512l12.064,29.664c13.325-5.426,27.58-8.203,41.968-8.176
				c61.827,0.071,111.93,50.173,112,112c0,5.173-0.091,10.32-0.272,15.44l32,1.12c0.192-5.504,0.288-11.008,0.288-16.56
				C379.416,194.248,314.987,129.826,235.488,129.747z"/>
			<path d="M161.504,189.747l-21.152-24c-31.037,27.316-48.836,66.654-48.864,108c0.093,43.04-15.719,84.596-44.4,116.688
				l23.84,21.344c33.933-37.96,52.651-87.116,52.56-138.032C123.513,241.587,137.36,210.99,161.504,189.747z"/>
			<path d="M214.976,487.123l25.968,18.624c14.764-20.524,27.537-42.41,38.144-65.36l-29.072-13.408
				C240.277,448.096,228.544,468.236,214.976,487.123z"/>
			<path d="M235.488,193.747c-44.183,0-80,35.817-80,80c-0.005,10.029-0.63,20.048-1.872,30l31.744,4
				c1.415-11.278,2.126-22.633,2.128-34c0-26.51,21.49-48,48-48c26.51,0,48,21.49,48,48c0.062,41.784-7.038,83.27-20.992,122.656
				l30.16,10.688c15.171-42.818,22.893-87.918,22.832-133.344C315.435,229.586,279.649,193.8,235.488,193.747z"/>
			<path d="M147.872,333.731c-9.955,38.188-29.129,73.349-55.84,102.4l23.552,21.616c30.246-32.894,51.968-72.701,63.264-115.936
				L147.872,333.731z"/>
			<path d="M219.488,273.747c-0.062,71.583-25.358,140.854-71.44,195.632l24.48,20.592c50.939-60.541,78.898-137.104,78.96-216.224
				H219.488z"/>
			<path d="M470.976,137.747l-27.696,16c21.114,36.467,32.224,77.862,32.208,120c0.029,20.184-2.662,40.279-8,59.744l30.848,8.512
				c6.104-22.237,9.182-45.196,9.152-68.256C507.488,225.991,494.894,179.081,470.976,137.747z"/>
			<path d="M235.488,33.747c72.855-0.082,141.773,33.058,187.2,90.016l24.944-20.032C364.919,0.331,219.711-28.38,103.872,35.763
				l15.536,27.968C154.937,44.066,194.88,33.749,235.488,33.747z"/>
			<path d="M85.504,86.547L65.472,61.555C39.12,82.681,16.92,108.516,0,137.747l27.696,16
				C42.638,127.96,62.24,105.174,85.504,86.547z"/>
		</g>
	</g>
</g>
<g>
</g>
<g>
</g>
<g>
</g>
<g>
</g>
<g>
</g>
<g>
</g>
<g>
</g>
<g>
</g>
<g>
</g>
<g>
</g>
<g>
</g>
<g>
</g>
<g>
</g>
<g>
</g>
<g>
</g>
</svg>
